<svg viewBox="0 0 16 16" width="16px" height="16px">
  <path fill-rule="evenodd" d="M13.632 13.635h-2.37V9.922c0-.886-.018-2.024-1.234-2.024-1.233 0-1.422 1.01-1.422 1.96v3.777H6.632V6.922h2.27v1.09h.03c.318-.6 1.092-1.233 2.25-1.233 2.41 0 2.85 1.584 2.85 3.645v4.245zM3.558 5.922c-.762 0-1.378-.617-1.378-1.377 0-.76.616-1.377 1.378-1.377.76 0 1.376.617 1.376 1.377 0 .76-.616 1.377-1.376 1.377zm1.188 7.713H2.37V6.922h2.376v6.713zM14.816 0H1.184C.528 0 0 .528 0 1.184v13.632C0 15.472.528 16 1.184 16h13.632c.656 0 1.184-.528 1.184-1.184V1.184C16 .528 15.472 0 14.816 0z"/>
</svg> 